<?xml version="1.0" encoding="iso-8859-1"?>
<!-- Generator: Adobe Illustrator 29.8.3, SVG Export Plug-In . SVG Version: 9.03 Build 0)  -->
<svg version="1.1" id="Layer_1" xmlns="http://www.w3.org/2000/svg" xmlns:xlink="http://www.w3.org/1999/xlink" x="0px" y="0px"
	 viewBox="0 0 499 563" style="enable-background:new 0 0 499 563;" xml:space="preserve">
<path style="fill:#D0C8BC;" d="M376.849,152.748c2.47,1.581,5.426,3.283,8.367,4.503c3.248,1.347,6.733,2.092,9.953,3.46
	l-0.054,191.673c-22.685,2.117-39.793,22.515-44.596,43.668L63.658,377.421c-2.499-8.794-5.387-16.408-10.49-24.038
	c-6.308-9.433-17.103-20.223-29.084-20.518l0.008-184.343c21.339-1.813,36.223-22.708,37.486-42.97l286.289,4.686
	c2.542,0.498,2.293,5.159,3.126,7.809C355.695,132.999,363.597,144.268,376.849,152.748z"/>
<path style="fill:#D0C8BC;" d="M168.598,419.571c0.487,0.541-1.218,4.873-1.553,5.865c-2.217,6.566-13.072,31.218-12.495,35.851
	c0.137,1.098,0.606,1.882,1.189,2.776c2.142,3.288,20.063,13.177,24.82,16.576c3.927,2.805,12.631,11.219,15.434,12.686
	c4.697,2.457,14.666,2.609,20.468,5.309c1.833,0.853,4.399,3.448,4.954,3.558c1.297,0.258,4.433-1.452,6.828-1.339
	c11.621,0.545,15.657,16.342,6.962,18.525c-4.569,1.147-3.099-1.754-5.178-5.408c-3.734-6.562-14.315-12.201-21.896-11.56
	c-2.591,0.219-4.145,2.265-2.716,4.537c0.432,0.687,10.531,2.458,14.373,7.106c3.645,4.411,3.946,10.272-2.559,11.583
	c-5.352,1.079-3.592-2.959-5.36-6.788c-3.138-6.798-20.163-16.504-25.268-8.367c2.031,2.797,5.659,1.937,9.078,3.466
	c10.419,4.661,10.874,16.429-2.872,14.98c0.921-9.659-10.206-17.798-19.125-17.211c-2.337,0.154-4.621,0.651-3.163,3.173
	c1.293,2.236,12.813,3.761,12.182,11.296c-0.198,2.362-7.812,3.699-9.822,3.588c-4.386-0.243-4.458-5.615-6.359-6.241
	c-2.963-0.975-3.664,2.337-5.502,2.889c-4.362,1.31-11.243-1.326-15.356-3.076c-3.59-1.527-12.866-7.963-15.137-8.365
	c-1.736-0.307-3.438,0.679-5.252,0.701c-22.611,0.275-38.718,0.392-31.269-28.151c3.533-13.538,12.462-21.056,17.371-33.401
	c6.098-15.334,8.853-32.055,13.482-47.846L168.598,419.571z M119.378,483.618c1.058-1.052-6.062-6.607-6.67-8.547
	c-0.988-3.152,0.375-5.635,0.042-8.634C106.798,473.392,111.73,481.184,119.378,483.618z"/>
<path style="fill:#D0C8BC;" d="M411.526,478.144l-0.382-2.331c-3.466,3.664-7.034,7.081-11.333,9.761l4.677,1.553
	c-10.551,18.385-31.03,19.908-48.615,26.372c-10.161,3.735-19.251,12.208-30.373,11.828c-23.082-0.788-17.336-25.174-18.658-40.525
	c-1.463-16.987-10.764-35.647-15.611-51.95l42.512-12.41l1.095,1.208c3.195,9.823,5.537,20.856,9.492,30.35
	c9.301,22.325,35.637,13.401,53.635,10.567c1.427-0.225,2.812,0.785,4.224,0.417c1.549-0.404,10.453-6.988,13.491-8.408
	c4.683-2.189,12.061-6.076,13.039,2.075C430.031,467.576,421.609,476.046,411.526,478.144z M315.439,479.713
	c-6.625,6.766,5.054,20.097,12.917,14.081c1.899-2.472-6.812-3.997-8.412-4.908C316.406,486.87,315.189,483.703,315.439,479.713z"/>
<path style="fill:#D0C8BC;" d="M431.841,384.416c1.831-6.968,2.805-14.222,3.149-21.448c3.675-77.337-2.845-157.544-0.002-235.179
	c-1.378-18.718-10.539-26.429-28.142-30.441c-10.904-2.485-31.145-3.078-42.464-2.453c-3.882,0.214-7.247,3.101-10.316,3.586
	c-11.042,1.746-23.986-0.656-35.072-0.767c-68.05-0.681-135.951-1.423-203.872-3.124c-7.027-0.176-14.109,0.314-21.13,0.032
	c-0.951-0.038-2.906,0.589-2.722-0.773l19.887-3.941c59.863-0.566,119.897,1.505,179.649,1.631
	c37.582,0.079,83.043-4.22,119.455,0.05c36.244,4.251,36.733,18.263,36.446,51.104c-0.46,52.539-0.784,105.23-0.853,157.791
	c-0.027,20.96,1.965,44.711-0.753,65.565C443.946,374.912,440.397,380.995,431.841,384.416z"/>
<path style="fill:#D0C8BC;" d="M424.022,381.292l-1.126-9.419c-1.669-4.354-4.076-9.595-7.436-12.873
	c-1.913-1.867-7.481-4.289-7.845-6.215l-0.057-192.183c0.167-1.414,6.008-4.294,7.862-6.233c1.926-2.013,3.466-5.15,4.986-7.512
	l3.615-7.711v242.146H424.022z"/>
<path style="fill:#D0C8BC;" d="M469.327,133.677v193.327c0,0.387-4.594,3.466-5.808,5.128c-2.774,3.799-4.464,9.882-8.253,13.228
	V135.239L469.327,133.677z"/>
<path style="fill:#D0C8BC;" d="M304.515,67.286c-1.061-0.175-5.228,0.251-5.476,0c-0.175-0.177,0.074-3.793-0.096-4.984
	c-3.2-22.454-14.762-25.269-35.449-27.039c-16.612-1.421-62.156-2.011-75.304,7.479c-5.541,3.999-7.701,9.419-9.077,15.919
	c-0.48,2.267-0.753,10.575-1.14,10.967c-0.263,0.266-5.106-0.191-6.257,0c-0.537-26.402,11.48-39.639,36.559-45.077
	c20.036-4.344,66.269-3.893,82.889,8.818C300.91,40.825,304.814,55.429,304.515,67.286z"/>
<path style="fill:#D0C8BC;" d="M424.807,482.052c-1.453-1.437,6.264-7.216,7.673-9.113c1.517-2.041,4.911-9.925,6.105-10.322
	c3.033-1.007,4.244,2.401,4.136,4.924C442.393,475.237,431.813,481.817,424.807,482.052z"/>
<path style="fill:#D0C8BC;" d="M289.669,82.904c-0.204-1.704,1.313-2.831,2.754-3.104c3.63-0.688,21.025-0.575,25.024-0.08
	c0.295,0.037,4.541,2.622,5.028,3.184H289.669z"/>
<path style="fill:#D0C8BC;" d="M405.275,148.518c-1.145,0.049-1.188-2.814-1.333-3.743c-1.837-11.737-2.852-21.389-11.93-30.243
	c5.504,1.236,9.475,7.087,11.294,12.131c0.321,0.891,1.969,6.278,1.969,6.623V148.518z"/>
<path style="fill:#D0C8BC;" d="M424.022,492.984c0.611-3.487,16.475-9.078,16.388-5.069
	C440.331,491.526,427.123,494.188,424.022,492.984z"/>
<path style="fill:#D0C8BC;" d="M399.795,394.567c-0.416,0.396-1.893,0.362-1.485-1.093c0.672-2.402,3.315-5.857,3.854-8.655
	l3.885-12.897c0.08,2.388,0.13,4.695-0.344,7.065C405.379,380.61,400.399,393.993,399.795,394.567z"/>
<path style="fill:#25241F;" d="M119.378,483.618c-7.647-2.434-12.58-10.226-6.628-17.181c0.333,2.999-1.031,5.482-0.042,8.634
	C113.316,477.011,120.436,482.566,119.378,483.618z"/>
<path style="fill:#25241F;" d="M315.439,479.713c-0.25,3.991,0.967,7.157,4.505,9.172c1.6,0.912,10.311,2.436,8.412,4.908
	C320.492,499.809,308.814,486.478,315.439,479.713z"/>
<g>
	<path style="fill:#25241F;" d="M10.81,147.737c-0.153-1.402-3.361-5.406-3.839-9.049c-2.672-20.378,6.131-41.64,27.393-46.68
		c13.975-3.312,29.522-3.961,43.494-8.06c15.322-4.495,14.51-5.84,31.731-5.698c4.586,0.038,34.91,1.08,36.271-0.119
		c0.479-0.422,1.34-5.619,5.26-7.625c2.47-1.264,7.06-0.613,7.325-0.876c0.457-0.453-0.17-10.747,0.006-12.882
		c2.005-24.321,16.856-36.991,39.493-42.525c26.877-6.57,89.264-7.77,109.727,13.577c10.803,11.27,11.414,27.125,12.498,41.787
		c6.8-0.831,11.774,1.623,14.543,7.884c23.64,0.641,47.345,0.196,70.985,0.715c12.778,0.281,26.27,0.047,39.056,0.781
		c33.502,1.922,44.348,22.897,36.235,54.266l0.004,192.259c10.246,27.682-3.935,58.062-33.331,64.99
		c-11.952,2.817-17.299,5.189-28.344,10.712c-21.736,10.869-32.775,18.921-59.386,13.334c-5.628-1.182-7.822-6.229-14.8-4.33
		c4.559,10.406,6.99,33.66,15.68,40.943c5.679,4.76,18.139,3.689,25.332,2.879c13.302-1.499,11.824-2.587,22.018-8.522
		c9.194-5.353,19.527-7.634,27.613,0.98c1.385,1.476,2.048,3.807,3.105,4.707c3.25,2.766,7.775,0.414,11.356,7.391
		c4.037,7.864,0.61,11.828,0.41,18.476c-0.063,2.099,0.893,4.202,0.713,6.94c-0.702,10.68-11.416,17.094-20.931,18.923
		c-3.605,0.693-9.581,0.427-12.107,1.172c-1.422,0.419-4.4,4.356-6.085,5.632c-12.219,9.251-28.31,7.927-42.276,12.403
		c-12.322,3.949-23.515,13.632-36.377,15.176c-23.829,2.86-37.172-6.548-39.128-30.736c-0.926-11.448,0.307-18.434-2.505-30.302
		c-5.745-24.248-16.787-48.119-23.481-72.206l-78.707-4.716l-21.068,58.392c7.905,4.729,15.705,10.032,22.92,15.758
		c3.108,2.467,9.03,9.287,11.915,10.737c3.46,1.739,10.504,2.437,14.876,3.871c6.402,2.1,6.636,2.329,13.649,3.536
		c16.488,2.838,24.664,22.27,12.3,34.55c-1.405,1.395-7.41,5.233-9.181,5.653c-2.822,0.669-5.194-0.489-6.86-0.245
		c-0.616,0.09-5.423,3.768-8.44,4.481c-5.099,1.206-7.146-0.347-10.96-0.091c-2.763,0.185-6.501,2.644-9.529,3.03
		c-5.017,0.639-7.49-1.516-10.873-1.515c-4.299,0.002-8.47,2.848-14.872,2.391c-4.322-0.309-6.71-2.643-8.7-2.998
		c-0.91-0.163-2.768,1.296-4.526,1.437c-12.945,1.039-17.006-4.744-27.537-8.442c-15.465-5.432-41.611,3.364-50.779-17.178
		c-10.994-24.634,10.308-45.468,18.356-65.589c2.206-5.515,15.42-50.657,13.464-52.539l-44.14-4.679
		c-33.763,4.093-60.025-2.678-62.132-40.982c-0.462-8.399,1.448-11.454,2.381-18.394l0.766-0.391l-0.766-0.391
		c0.453-4.851-0.081-10.613,0-15.622c1.175-0.109,1.175-2.234,0-2.343c0.07-5.456-0.032-10.947,0-16.403l0.766-0.391l-0.766-0.391
		c0.059-10.664-0.028-21.362,0-32.026l0.766-0.391l-0.766-0.391c0.033-11.445-0.002-22.924,0-34.369l0.766-0.391l-0.766-0.391
		c0.002-13.788-0.03-27.611,0-41.399c1.278-0.787,1.255-3.947,0-4.687c0.013-2.55-0.19-5.307,0-7.811
		c0.75-0.208,0.743-0.901,0.781-1.562c0.103-1.804-0.018-3.657,0-5.468c0.01-1.041-0.005-2.083,0-3.124
		c0.003-0.521-0.002-1.041,0-1.562c0.001-0.26-0.001-0.521,0-0.781c0.001-0.52,0.008-1.042,0-1.562c-0.004-0.26,0.005-0.521,0-0.781
		c-0.026-1.3,0.039-2.606,0-3.906C10.749,151.96,11.022,149.681,10.81,147.737z M304.515,67.286
		c0.3-11.857-3.604-26.461-13.351-33.915c-16.62-12.711-62.853-13.162-82.889-8.818c-25.079,5.437-37.095,18.675-36.559,45.077
		c1.151-0.191,5.994,0.266,6.257,0c0.387-0.392,0.66-8.7,1.14-10.967c1.376-6.5,3.536-11.92,9.077-15.919
		c13.149-9.49,58.693-8.9,75.304-7.479c20.686,1.769,32.249,4.585,35.449,27.039c0.17,1.19-0.079,4.806,0.096,4.984
		C299.286,67.537,303.453,67.111,304.515,67.286z M265.455,77.437c2.518,0.02,10.945,1.406,12.396-0.101
		c0.319-0.331,0.336-4.772,2.469-6.514c1.87-1.528,6.215-1.371,8.555-2.797c-1.911-7.284-4.431-18.403-13.059-20.087
		c-17.008-3.321-54.786-3.884-71.462,0.034c-10.596,2.49-12.433,12.132-13.891,21.651c4.308-0.334,7.08,0.557,9.714,3.963
		c0.869,1.123,1.308,3.067,2.007,3.852c0.228,0.257,0.329,0.664,0.781,0.781c0.761,0.197,2.167-0.056,3.124,0
		c1.035,0.061,2.087-0.036,3.124,0c0.519,0.018,1.042-0.007,1.562,0c0.26,0.003,0.521,0.001,0.781,0c1.82-0.009,3.649,0.04,5.468,0
		c1.028-0.023,2.584,0.39,3.124-0.781c0.519-0.019,1.042,0.007,1.562,0h0.781c1.82-0.016,3.647,0.005,5.468,0
		c2.779,1.324,8.318,1.301,10.936,0c0.521,0,1.041,0,1.562,0c3.911,1.308,10.093,1.314,14.06,0c2.08,0.009,4.169-0.013,6.249,0
		C261.508,78.692,264.668,78.715,265.455,77.437z M289.669,82.904h32.807c-0.487-0.562-4.733-3.147-5.028-3.184
		c-4-0.495-21.394-0.609-25.024,0.08C290.982,80.073,289.465,81.2,289.669,82.904z M431.841,384.416
		c8.556-3.421,12.105-9.504,13.26-18.367c2.718-20.855,0.725-44.605,0.753-65.565c0.069-52.561,0.393-105.252,0.853-157.791
		c0.287-32.84-0.202-46.853-36.446-51.104c-36.411-4.27-81.873,0.029-119.455-0.05c-59.752-0.126-119.786-2.197-179.649-1.631
		L91.27,93.849c-0.184,1.362,1.771,0.735,2.722,0.773c7.022,0.282,14.104-0.208,21.13-0.032
		c67.921,1.701,135.822,2.444,203.872,3.124c11.085,0.111,24.03,2.512,35.072,0.767c3.069-0.485,6.434-3.372,10.316-3.586
		c11.32-0.625,31.56-0.032,42.464,2.453c17.603,4.012,26.764,11.724,28.142,30.441c-2.843,77.635,3.677,157.842,0.002,235.179
		C434.646,370.194,433.671,377.448,431.841,384.416z M376.849,152.748c-13.251-8.48-21.154-19.749-25.854-34.701
		c-0.833-2.65-0.584-7.311-3.126-7.809L61.58,105.552c-1.264,20.263-16.147,41.157-37.486,42.97l-0.008,184.343
		c11.981,0.295,22.776,11.086,29.084,20.518c5.102,7.629,7.991,15.244,10.49,24.038l286.861,18.631
		c4.803-21.153,21.911-41.551,44.596-43.668l0.054-191.673c-3.22-1.369-6.705-2.113-9.953-3.46
		C382.274,156.031,379.319,154.329,376.849,152.748z M405.275,148.518v-15.232c0-0.345-1.648-5.732-1.969-6.623
		c-1.82-5.044-5.79-10.895-11.294-12.131c9.078,8.854,10.093,18.506,11.93,30.243C404.087,145.704,404.13,148.568,405.275,148.518z
		 M469.327,133.677l-14.06,1.562V345.36c3.788-3.346,5.478-9.429,8.253-13.228c1.214-1.662,5.808-4.741,5.808-5.128V133.677H469.327
		z M424.022,381.292V139.145l-3.615,7.711c-1.519,2.362-3.059,5.499-4.986,7.512c-1.855,1.938-7.695,4.819-7.862,6.233
		l0.057,192.183c0.364,1.927,5.932,4.348,7.845,6.215c3.359,3.279,5.767,8.519,7.436,12.873L424.022,381.292z M399.795,394.567
		c0.604-0.574,5.584-13.957,5.909-15.581c0.474-2.37,0.425-4.677,0.344-7.065l-3.885,12.897c-0.538,2.798-3.182,6.254-3.854,8.655
		C397.902,394.93,399.379,394.963,399.795,394.567z M168.598,419.571l-43.739-13.288c-4.629,15.792-7.385,32.513-13.482,47.846
		c-4.909,12.345-13.838,19.863-17.371,33.401c-7.449,28.543,8.658,28.425,31.269,28.151c1.814-0.022,3.516-1.009,5.252-0.701
		c2.271,0.402,11.548,6.837,15.137,8.365c4.113,1.75,10.994,4.386,15.356,3.076c1.837-0.552,2.539-3.864,5.502-2.889
		c1.901,0.626,1.973,5.998,6.359,6.241c2.01,0.111,9.625-1.227,9.822-3.588c0.631-7.534-10.889-9.06-12.182-11.296
		c-1.459-2.522,0.825-3.019,3.163-3.173c8.919-0.586,20.046,7.552,19.125,17.211c13.746,1.449,13.291-10.319,2.872-14.98
		c-3.419-1.529-7.048-0.669-9.078-3.466c5.105-8.136,22.129,1.569,25.268,8.367c1.768,3.829,0.008,7.867,5.36,6.788
		c6.506-1.311,6.205-7.171,2.559-11.583c-3.841-4.649-13.94-6.419-14.373-7.106c-1.43-2.272,0.125-4.318,2.716-4.537
		c7.582-0.641,18.162,4.997,21.896,11.56c2.079,3.654,0.609,6.555,5.178,5.408c8.695-2.183,4.659-17.98-6.962-18.525
		c-2.396-0.112-5.532,1.597-6.828,1.339c-0.556-0.11-3.122-2.706-4.954-3.558c-5.802-2.7-15.772-2.852-20.468-5.309
		c-2.803-1.467-11.508-9.881-15.434-12.686c-4.758-3.399-22.678-13.288-24.82-16.576c-0.583-0.894-1.052-1.678-1.189-2.776
		c-0.577-4.633,10.278-29.285,12.495-35.851C167.38,424.444,169.085,420.112,168.598,419.571z M411.526,478.144
		c10.083-2.098,18.505-10.569,17.194-21.492c-0.978-8.151-8.357-4.264-13.039-2.075c-3.039,1.421-11.943,8.004-13.491,8.408
		c-1.412,0.368-2.797-0.641-4.224-0.417c-17.998,2.834-44.334,11.757-53.635-10.567c-3.956-9.494-6.297-20.527-9.492-30.35
		l-1.095-1.208l-42.512,12.41c4.847,16.303,14.148,34.963,15.611,51.95c1.322,15.351-4.424,39.737,18.658,40.525
		c11.122,0.38,20.212-8.093,30.373-11.828c17.586-6.464,38.065-7.987,48.615-26.372l-4.677-1.553
		c4.299-2.68,7.867-6.097,11.333-9.761L411.526,478.144z M424.807,482.052c7.006-0.235,17.587-6.815,17.914-14.51
		c0.107-2.524-1.104-5.932-4.136-4.924c-1.194,0.397-4.588,8.28-6.105,10.322C431.071,474.835,423.354,480.615,424.807,482.052z
		 M424.022,492.984c3.101,1.204,16.309-1.458,16.388-5.069C440.497,483.906,424.633,489.497,424.022,492.984z"/>
</g>
<g>
	<g>
		<path d="M145.259,93.271c9.475,1.402,19.02,2.263,28.596,2.486c4.756,0.111,9.516,0.072,14.269-0.12
			c4.11-0.166,8.741-0.088,12.235-2.59c1.096-0.785,1.623-2.179,0.897-3.42c-0.634-1.083-2.317-1.687-3.42-0.897
			c-3.098,2.218-7.564,1.84-11.187,1.961c-4.427,0.149-8.858,0.166-13.286,0.053c-8.959-0.228-17.909-0.984-26.775-2.296
			c-1.334-0.197-2.687,0.333-3.075,1.746C143.189,91.373,143.915,93.072,145.259,93.271L145.259,93.271z"/>
	</g>
</g>
<g>
	<g>
		<path style="fill:#25241F;" d="M142.405,89.052c5.168,7.085,15.468,7.254,23.408,7.535c9.152,0.324,18.353,0.661,27.478-0.33
			c4.219-0.458,10.482-0.625,11.125-5.999c0.158-1.322-1.273-2.531-2.5-2.5c-5.609,0.143-11.221,0.143-16.829-0.015
			c-5.486-0.155-11.107-0.213-16.536-1.081c-4.804-0.769-9.943-2.703-14.773-1.034c-1.255,0.434-2.629,1.012-3.195,2.303
			c-0.638,1.452-0.026,3.032,1.337,3.793c1.033,0.576,2.405,0.623,3.553,0.784c1.482,0.208,2.966,0.381,4.459,0.488
			c3.013,0.216,6.043,0.194,9.053-0.066c1.356-0.117,2.704-0.338,4.063-0.427c0.831-0.055,2.118-0.196,2.832,0.384
			c0.589-1.423,1.179-2.845,1.768-4.268c-7.131,0.233-14.27-0.209-21.306-1.405c0.199,1.523,0.398,3.046,0.597,4.569
			c1.2-0.599,2.772-0.384,4.068-0.375c1.785,0.012,3.57,0.024,5.356,0.036c3.57,0.024,7.141,0.048,10.711,0.072
			c3.218,0.021,3.222-4.978,0-5c-3.895-0.026-7.79-0.052-11.685-0.078c-3.578-0.024-7.669-0.622-10.974,1.029
			c-1.834,0.916-1.511,4.211,0.597,4.569c7.481,1.272,15.049,1.831,22.635,1.584c1.97-0.064,3.55-2.819,1.768-4.268
			c-3.561-2.895-7.925-1.54-12.095-1.302c-2.222,0.127-4.452,0.124-6.674-0.007c-1.111-0.066-2.22-0.162-3.326-0.294
			c-0.568-0.067-1.133-0.148-1.698-0.238c-0.314-0.05-0.628-0.103-0.941-0.159c-0.621-0.185-0.63-0.104-0.029,0.243
			c0.214,0.368,0.429,0.735,0.643,1.103c-0.027-0.071-0.055-0.141-0.082-0.212c0,0.443,0,0.886,0,1.329
			c0.022-0.086,0.043-0.171,0.065-0.257c-0.214,0.368-0.429,0.735-0.643,1.103c0.698-0.747,3.105-0.712,4.24-0.651
			c1.77,0.095,3.506,0.511,5.235,0.876c4.068,0.86,8.174,1.258,12.321,1.491c8.486,0.477,16.988,0.597,25.484,0.38
			c-0.833-0.833-1.667-1.667-2.5-2.5c0.087-0.724,0.284-0.331-0.017-0.235c-0.306,0.097-0.589,0.308-0.906,0.412
			c-1.027,0.336-2.148,0.441-3.213,0.584c-2.507,0.338-5.034,0.549-7.56,0.688c-5.028,0.277-10.067,0.235-15.099,0.1
			c-4.943-0.132-9.964-0.125-14.876-0.747c-3.656-0.463-8.675-1.311-11.024-4.532c-0.795-1.089-2.171-1.627-3.42-0.897
			C142.227,86.26,141.605,87.955,142.405,89.052L142.405,89.052z"/>
	</g>
</g>
<g>
	<g>
		<path style="fill:#25241F;" d="M279.856,88.496c-1.943-0.37-3.824,0.797-3.938,2.893c-0.1,1.853,1.258,3.168,2.958,3.651
			c3.259,0.926,7.034,0.621,10.296-0.085c2.582-0.559,2.16-4.06,0-4.821c-1.569-0.553-3.319-0.548-4.874,0.05
			c-2.636,1.014-2.227,4.675,0.665,4.911c17.046,1.391,34.178,0.712,51.078-1.892c1.211-0.187,1.956-1.641,1.791-2.743
			c-0.199-1.32-1.182-2.018-2.455-2.168c-9.352-1.097-18.408,2.237-27.713,2.334c-9.346,0.097-18.511-3.154-27.826-0.925
			c-2.381,0.57-2.385,4.252,0,4.821c9.535,2.276,19.391,2.127,29.128,1.981c8.998-0.135,18.183-0.687,26.35-4.834
			c2.87-1.457,0.342-5.772-2.524-4.317c-7.466,3.791-16.066,4.043-24.264,4.158c-9.14,0.128-18.409,0.327-27.361-1.809
			c0,1.607,0,3.214,0,4.821c8.901-2.13,17.996,1.292,26.961,1.096c9.142-0.2,18.059-3.404,27.249-2.326
			c-0.222-1.637-0.443-3.274-0.665-4.911c-16.44,2.533-33.173,3.066-49.749,1.713c0.222,1.637,0.443,3.274,0.665,4.911
			c0.842-0.324,1.363-0.351,2.216-0.05c0-1.607,0-3.214,0-4.821c-1.432,0.31-2.864,0.456-4.33,0.436
			c-1.023-0.014-2.752,0.101-3.602-0.538c0.299,0.299,0.598,0.598,0.897,0.897c0.037,0.154,0.074,0.307,0.111,0.461
			c-0.114,0.421-0.228,0.841-0.341,1.262c-0.029,0.022-0.059,0.044-0.088,0.067c-0.368,0.214-0.735,0.429-1.103,0.643
			c0.075-0.03,0.15-0.06,0.225-0.089c-0.443,0-0.886,0-1.329,0c0.082,0.016,0.164,0.031,0.246,0.047
			c1.325,0.252,2.697-0.37,3.075-1.746C281.938,90.349,281.189,88.75,279.856,88.496L279.856,88.496z"/>
	</g>
</g>
<g>
	<g>
		<path style="fill:#D0C8BC;" d="M289.829,81.785c-0.629,1.321-0.802,2.556-0.491,3.989c0.182,0.836,0.941,1.527,1.746,1.746
			c8.978,2.441,18.671,1.591,27.872,1.519c2.139-0.017,4.869-0.148,5.562-2.672c0.717-2.614-1.961-4.391-4.174-4.745
			c-2.306-0.369-4.713-0.327-7.042-0.444c-2.49-0.124-4.98-0.249-7.469-0.373c-2.587-0.129-5.185-0.345-7.775-0.364
			c-2.32-0.017-4.773,0.323-6.676,1.75c-1.078,0.809-1.634,2.16-0.897,3.42c0.622,1.063,2.334,1.712,3.42,0.897
			c1.575-1.182,3.431-1.112,5.319-1.033c2.452,0.103,4.904,0.244,7.355,0.367c2.49,0.124,4.98,0.249,7.469,0.373
			c1.328,0.066,2.656,0.131,3.984,0.199c0.351,0.018,1.778-0.054,1.921,0.284c-0.114-0.421-0.228-0.841-0.341-1.262
			c-0.002,0.088-0.003,0.177-0.005,0.265c0.114-0.421,0.228-0.841,0.341-1.262c0.831-0.445,0.965-0.574,0.404-0.389
			c0.203-0.08,0.06-0.087-0.43-0.02c-0.643-0.014-1.29,0.01-1.933,0.015c-1.289,0.01-2.578,0.02-3.866,0.03
			c-2.465,0.019-4.93,0.049-7.395,0.052c-4.822,0.007-9.638-0.159-14.315-1.431c0.582,0.582,1.164,1.164,1.746,1.746
			c-0.011-0.05-0.04-0.08-0.014-0.136c0.58-1.218,0.337-2.699-0.897-3.42C292.159,80.251,290.412,80.561,289.829,81.785
			L289.829,81.785z"/>
	</g>
</g>
<g>
	<g>
		<path style="fill:#D0C8BC;" d="M162.331,79.863c-0.047-0.005-0.093-0.011-0.14-0.016c-1.092-0.126-2.12,0.869-2.411,1.835
			c-1.142,3.791,4.523,4.505,6.988,5.057c3.302,0.739,6.679,1.208,10.057,1.406c3.237,0.189,6.488,0.11,9.711-0.241
			c2.781-0.303,6.203-0.647,7.583-3.507c0.637-1.32,0.215-3.365-1.494-3.672c-7.969-1.433-15.969-2.675-23.996-3.74
			c-1.951-0.259-3.903-0.507-5.857-0.743c-1.917-0.232-3.943-0.59-5.82,0.073c-1.606,0.567-2.917,1.77-3.292,3.467
			c-0.505,2.282,1.195,3.753,3.054,4.611c6.709,3.095,14.299,3.556,21.578,3.902c3.553,0.169,7.25,0.058,10.589-1.295
			c1.872-0.759,3.476-2.746,2.274-4.8c-0.96-1.641-3.617-2.25-5.319-2.742c-4.212-1.217-8.557-1.151-12.891-0.92
			c-4.434,0.236-8.808,0.284-13.199-0.481c-1.965-0.342-4.138,1.691-2.823,3.672c1.491,2.248,3.877,3.029,6.401,3.569
			c3.052,0.652,6.17,0.998,9.277,1.259c6.112,0.512,12.24,0.868,18.364,1.186c2.794,0.145,3.427-4.31,0.665-4.911
			c-6.506-1.416-13.11-2.367-19.75-2.861c-1.348-0.1-2.5,1.221-2.5,2.5c0,1.436,1.148,2.4,2.5,2.5
			c6.202,0.461,12.344,1.36,18.421,2.682c0.222-1.637,0.443-3.274,0.665-4.911c-5.482-0.285-10.961-0.624-16.436-1.035
			c-2.588-0.194-5.181-0.4-7.743-0.828c-1.222-0.204-2.446-0.438-3.644-0.757c-0.607-0.162-1.526-0.351-1.903-0.919
			c-0.941,1.224-1.882,2.448-2.823,3.673c5.106,0.89,10.101,0.885,15.257,0.621c2.49-0.127,5.024-0.244,7.506,0.071
			c1.124,0.143,2.24,0.395,3.328,0.709c0.701,0.203,2.347,0.566,2.722,0.95c-0.214-0.368-0.429-0.735-0.643-1.103
			c0.021,0.091,0.042,0.181,0.063,0.272c0-0.443,0-0.886,0-1.329c-0.03,0.088-0.059,0.175-0.089,0.263
			c0.214-0.368,0.429-0.735,0.643-1.103c-0.329,0.397-1.546,0.601-2.14,0.734c-0.923,0.207-1.85,0.309-2.794,0.358
			c-2.06,0.108-4.124-0.022-6.179-0.155c-4.048-0.262-8.113-0.532-12.066-1.497c-0.993-0.243-1.977-0.528-2.943-0.864
			c-0.874-0.304-1.757-0.885-2.637-1.112c-0.048-0.025-0.095-0.051-0.143-0.076c-0.568-0.351-0.528,0.142,0.119,1.478
			c0.007,0.003,0.029-0.048,0.056-0.04c0.085,0.023,0.757-0.122,0.745-0.121c1.013-0.071,2.061,0.13,3.063,0.25
			c4.501,0.54,8.993,1.143,13.477,1.809c5.191,0.771,10.37,1.625,15.536,2.554c-0.498-1.224-0.996-2.448-1.494-3.672
			c-0.532,1.103-3.246,1.041-4.417,1.145c-2.537,0.225-5.089,0.282-7.634,0.173c-2.4-0.102-4.79-0.349-7.156-0.772
			c-1.216-0.217-2.424-0.473-3.624-0.767c-0.6-0.147-1.197-0.304-1.792-0.47c-0.46-0.128-1.193-0.204-1.587-0.472
			c0.299,0.299,0.598,0.598,0.897,0.897c0.025,0.067,0.05,0.134,0.076,0.201c0,0.443,0,0.886,0,1.329
			c0.013-0.042,0.025-0.084,0.038-0.127c-0.804,0.612-1.607,1.224-2.411,1.835c0.047,0.005,0.093,0.011,0.14,0.016
			c1.343,0.155,2.5-1.26,2.5-2.5C164.831,80.883,163.678,80.018,162.331,79.863L162.331,79.863z"/>
	</g>
</g>
</svg>
